<?xml version="1.0" standalone="no"?>
<!DOCTYPE svg PUBLIC "-//W3C//DTD SVG 20010904//EN"
 "http://www.w3.org/TR/2001/REC-SVG-20010904/DTD/svg10.dtd">
<svg version="1.0" xmlns="http://www.w3.org/2000/svg"
 width="1080.000000pt" height="1920.000000pt" viewBox="0 0 1080.000000 1920.000000"
 preserveAspectRatio="xMidYMid meet">

<g transform="translate(0.000000,1920.000000) scale(0.100000,-0.100000)"
fill="#000000" stroke="none">
<path d="M4245 11283 c-109 -39 -191 -107 -249 -205 -51 -87 -56 -141 -56
-643 0 -254 5 -487 10 -520 30 -181 176 -326 362 -357 178 -29 367 72 451 241
l32 66 0 560 0 560 -32 67 c-44 93 -109 160 -201 205 -68 34 -83 38 -171 40
-73 3 -108 -1 -146 -14z"/>
<path d="M6198 11281 c-117 -38 -221 -139 -270 -259 -23 -57 -23 -60 -26 -560
-2 -308 1 -524 7 -557 42 -225 266 -383 489 -346 144 25 261 114 325 248 l32
68 0 555 0 555 -34 70 c-44 89 -116 162 -204 205 -60 29 -79 33 -165 37 -75 2
-110 -1 -154 -16z"/>
<path d="M3853 8909 c-65 -25 -141 -92 -175 -156 -41 -76 -43 -90 -14 -95 21
-4 27 1 41 38 52 135 214 218 355 180 55 -14 69 -10 70 20 0 36 -193 45 -277
13z"/>
<path d="M6678 8918 c-41 -11 -44 -16 -25 -41 11 -14 17 -15 67 -1 71 19 129
12 208 -27 66 -32 121 -91 144 -155 9 -25 18 -34 35 -34 30 0 29 18 -3 81 -32
65 -96 128 -159 160 -40 19 -67 24 -140 26 -49 1 -107 -3 -127 -9z"/>
<path d="M3936 8658 c-37 -52 -8 -110 138 -286 288 -345 668 -574 1061 -637
116 -19 364 -19 480 0 426 69 843 336 1139 729 79 105 89 126 75 163 -21 61
-87 62 -123 3 -83 -141 -279 -353 -436 -472 -113 -85 -312 -190 -440 -232
-634 -208 -1275 30 -1731 644 -75 101 -84 110 -115 110 -23 0 -38 -7 -48 -22z"/>
</g>
</svg>
