<svg xmlns="http://www.w3.org/2000/svg" xmlns:xlink="http://www.w3.org/1999/xlink" width="124.5" height="31.596" viewBox="0 0 124.5 31.596">
  <defs>
    <clipPath id="clip-path">
      <rect id="Rectangle_1" data-name="Rectangle 1" width="124.5" height="31.596" fill="#282e31"/>
    </clipPath>
  </defs>
  <g id="Group_1" data-name="Group 1" clip-path="url(#clip-path)">
    <path id="Path_1" data-name="Path 1" d="M18.847,28.878a.529.529,0,0,1-.518.573q-.517.074-2.7.074a21.15,21.15,0,0,1-2.882-.11.671.671,0,0,1-.555-.757q0-.869.056-2.624t.055-2.642q0-.684-.036-2.042t-.037-2.042q0-2.531-2.2-2.531a3.211,3.211,0,0,0-1.682.628q-1.033.7-1.034,1.385v9.978a.605.605,0,0,1-.573.684q-.647.074-2.642.074a21.589,21.589,0,0,1-2.81-.11A.582.582,0,0,1,.72,28.8q0-1.441.019-4.343T.758,20.1a28.5,28.5,0,0,0-.721-7.225A1.335,1.335,0,0,1,0,12.6a.405.405,0,0,1,.277-.407q1.165-.129,3.1-.406,2.939-.573,3.308-.573.2,0,.315,1.247t.314,1.247q-.2,0,1.987-1.284a7.85,7.85,0,0,1,3.833-1.284,6.621,6.621,0,0,1,3.918,1.109A4.137,4.137,0,0,1,18.809,15.8V21.69q0,1.2.019,3.593t.019,3.594" transform="translate(0 -3.989)" fill="#282e31"/>
    <path id="Path_2" data-name="Path 2" d="M50.64,19.1q0,1.866-1.2,2.125-.2.038-3.825.406-2.18.241-6.5.573a2.619,2.619,0,0,0,1.571,1.829,5.533,5.533,0,0,0,2.439.517,6.981,6.981,0,0,0,3.308-.886l1.4-.887a5.5,5.5,0,0,1,1.3,1.885,6.932,6.932,0,0,1,.915,2.162q0,.129-.277.425-2.254,2.421-7,2.421a9.865,9.865,0,0,1-7.1-2.568A9.106,9.106,0,0,1,32.9,20.137a9.942,9.942,0,0,1,2.476-6.966,8.694,8.694,0,0,1,6.763-2.808,8.025,8.025,0,0,1,6.024,2.587A8.593,8.593,0,0,1,50.64,19.1m-6.467-1.127a2.856,2.856,0,0,0-.813-2.014,2.568,2.568,0,0,0-1.94-.868,2.332,2.332,0,0,0-1.922.979,3.367,3.367,0,0,0-.7,2.125q0,.5.517.5a32.492,32.492,0,0,0,4.249-.425q.609-.092.61-.3" transform="translate(-11.781 -3.711)" fill="#282e31"/>
    <path id="Path_3" data-name="Path 3" d="M81.454,16.62a23.586,23.586,0,0,1-.221,4.361,54.336,54.336,0,0,1-4.047,6.689q-.591.906-3.049,4.194a31.081,31.081,0,0,1-3.086,3.825q-.443.277-5.673.277a2.119,2.119,0,0,1-1.071-.185q-.241-.758-.61-1.792-.3-.647-.591-1.312a4.212,4.212,0,0,1-.425-1.275q0-.351.314-.351,5.137,0,5.137-2.347a34.08,34.08,0,0,0-2.513-3.677,22.333,22.333,0,0,1-2.864-4.508,25.1,25.1,0,0,1-.148-3.825q0-.665.037-2t.037-2q0-.48.609-.481.943,0,2.855.056T69,12.315q.388,0,.388.573,0,.518-.055,1.562t-.055,1.561q0,2.328.074,3.159a7.4,7.4,0,0,0,1.109,2.4Q71.568,23.4,72.067,23.4q.426,0,1.442-1.811a8.709,8.709,0,0,0,1.016-2.31,31.34,31.34,0,0,0,.185-3.529q0-.5-.092-1.515T74.525,12.7q0-.351.388-.351.943,0,2.818-.074t2.818-.074a.638.638,0,0,1,.646.481,17.745,17.745,0,0,1,.259,3.936" transform="translate(-22.419 -4.37)" fill="#282e31"/>
    <path id="Path_4" data-name="Path 4" d="M111.894,19.1q0,1.866-1.2,2.125-.2.038-3.825.406-2.18.241-6.5.573a2.619,2.619,0,0,0,1.571,1.829,5.533,5.533,0,0,0,2.439.517,6.981,6.981,0,0,0,3.308-.886l1.4-.887a5.5,5.5,0,0,1,1.3,1.885,6.932,6.932,0,0,1,.915,2.162q0,.129-.277.425-2.254,2.421-7,2.421a9.865,9.865,0,0,1-7.1-2.568,9.106,9.106,0,0,1-2.772-6.966,9.942,9.942,0,0,1,2.476-6.966,8.694,8.694,0,0,1,6.763-2.808,8.025,8.025,0,0,1,6.024,2.587,8.593,8.593,0,0,1,2.476,6.153m-6.467-1.127a2.856,2.856,0,0,0-.813-2.014,2.568,2.568,0,0,0-1.94-.868,2.332,2.332,0,0,0-1.922.979,3.367,3.367,0,0,0-.7,2.125q0,.5.517.5a32.493,32.493,0,0,0,4.249-.425q.609-.092.61-.3" transform="translate(-33.716 -3.711)" fill="#282e31"/>
    <path id="Path_5" data-name="Path 5" d="M143.053,28.878a.529.529,0,0,1-.517.573q-.517.074-2.7.074a21.142,21.142,0,0,1-2.882-.11.671.671,0,0,1-.555-.757q0-.869.056-2.624t.055-2.642q0-.684-.037-2.042t-.037-2.042q0-2.531-2.2-2.531a3.207,3.207,0,0,0-1.682.628q-1.034.7-1.035,1.385v9.978a.6.6,0,0,1-.573.684q-.647.074-2.642.074a21.57,21.57,0,0,1-2.809-.11.582.582,0,0,1-.573-.61q0-1.441.019-4.343t.019-4.361a28.5,28.5,0,0,0-.721-7.225,1.334,1.334,0,0,1-.037-.277.4.4,0,0,1,.277-.407q1.164-.129,3.1-.406,2.938-.573,3.308-.573.2,0,.314,1.247t.314,1.247q-.2,0,1.987-1.284a7.854,7.854,0,0,1,3.833-1.284,6.622,6.622,0,0,1,3.918,1.109,4.137,4.137,0,0,1,1.755,3.547V21.69q0,1.2.019,3.593t.019,3.594" transform="translate(-44.477 -3.989)" fill="#282e31"/>
    <path id="Path_6" data-name="Path 6" d="M165.18,16.944q0,1.349.055,4.019t.055,4q0,.388-.462.462a21.365,21.365,0,0,1-2.827.111,21.576,21.576,0,0,1-2.846-.111c-.271-.049-.438-.129-.5-.24a2.078,2.078,0,0,1-.037-.554q0-1.275.055-3.834t.056-3.853a67.364,67.364,0,0,0-.407-8.352q-.037-.3-.037-.388,0-.37.5-.37.517,0,1.58.111t1.6.111q.536,0,1.607-.092t1.608-.092q.443,0,.443.369c0,.049-.012.167-.037.351a75.478,75.478,0,0,0-.406,8.352m.48-13.729q0,3.215-3.622,3.215a3.984,3.984,0,0,1-2.568-.813,2.914,2.914,0,0,1-1.109-2.4A2.9,2.9,0,0,1,159.508.851,3.9,3.9,0,0,1,162.039,0a3.8,3.8,0,0,1,2.494.869,2.9,2.9,0,0,1,1.127,2.347" transform="translate(-56.681 0)" fill="#282e31"/>
    <path id="Path_7" data-name="Path 7" d="M186.521,17.923q0,.72-.8.721c-.233,0-.576-.015-1.025-.046s-.786-.046-1.007-.046a3.3,3.3,0,0,0-2.088.48,2.55,2.55,0,0,0-.553,1.94q0,.8.028,2.412t.027,2.411q0,.536.074,1.6t.073,1.58c0,.3-.2.462-.61.5q-.887.073-2.716.074-1.755,0-2.808-.111-.61-.074-.61-.61,0-1.478.019-4.425t.018-4.425a26.849,26.849,0,0,0-.794-7.151,1.3,1.3,0,0,1-.038-.277.363.363,0,0,1,.277-.37q1.016-.111,2.975-.406,2.918-.573,3.012-.573.332,0,.425,1.164c.061.776.173,1.164.332,1.164q-.257,0,1.516-.97a7.12,7.12,0,0,1,3.417-.97q1.035,0,1.035.444a14.3,14.3,0,0,1-.111,1.515q-.11,1.053-.129,1.515,0,.536.018,1.423.038,1.09.038,1.441" transform="translate(-62.206 -4.01)" fill="#282e31"/>
  </g>
</svg>
