<svg xmlns="http://www.w3.org/2000/svg" xmlns:xlink="http://www.w3.org/1999/xlink" width="50.52" height="52.88" viewBox="0 0 50.52 52.88">
  <defs>
    <clipPath id="clip-path">
      <rect id="Rectangle_194" data-name="Rectangle 194" width="50.52" height="52.88" transform="translate(0 0)" fill="#282e31"/>
    </clipPath>
  </defs>
  <g id="Group_236" data-name="Group 236" transform="translate(0 0)">
    <g id="Group_235" data-name="Group 235" clip-path="url(#clip-path)">
      <path id="Path_152" data-name="Path 152" d="M50.52,12.4a3.587,3.587,0,0,0-3.57-3.58h-.02a3.574,3.574,0,0,0-3.57,3.58V23.59l-.01.09v.16a9.036,9.036,0,0,1-.42,2.62,7.269,7.269,0,0,1-13.96-.91,11.572,11.572,0,0,1-.1-1.47v-8.1c0-.02-.01-.04-.01-.06A14.411,14.411,0,0,0,7.16,3.64V3.58A3.58,3.58,0,1,0,0,3.58V27.71a3.58,3.58,0,1,0,7.16,0V16.52l.01-.25a9.036,9.036,0,0,1,.42-2.62,7.269,7.269,0,0,1,13.96.91,11.572,11.572,0,0,1,.1,1.47v8.16A14.392,14.392,0,0,0,43.1,36.59a7.064,7.064,0,0,1,.26,1.85,7.272,7.272,0,0,1-12.82,4.71l-.02.02a3.562,3.562,0,0,0-5.43,4.61.435.435,0,0,1,.06.07,3.705,3.705,0,0,0,.27.29,14.408,14.408,0,0,0,25.09-9.69c0-.05-.01-.11-.01-.16h.01c0-.09-.01-.17-.01-.25h.01Z" fill="#282e31"/>
    </g>
  </g>
</svg>
