<svg xmlns="http://www.w3.org/2000/svg" xmlns:xlink="http://www.w3.org/1999/xlink" width="21.234" height="22.986" viewBox="0 0 21.234 22.986">
  <defs>
    <clipPath id="clip-path">
      <rect id="Rectangle_237" data-name="Rectangle 237" width="21.234" height="22.986" fill="#007fff"/>
    </clipPath>
  </defs>
  <g id="Group_326" data-name="Group 326" transform="translate(0 0)">
    <g id="Group_325" data-name="Group 325" transform="translate(0 0)" clip-path="url(#clip-path)">
      <path id="Path_202" data-name="Path 202" d="M20.887,12.643a.374.374,0,0,0,.315-.19.347.347,0,0,0-.031-.366l-1.526-2.045.819-2.417a.348.348,0,0,0-.442-.441L17.605,8,15.56,6.476A.348.348,0,0,0,15,6.759l.033,2.552-2.084,1.474a.348.348,0,0,0,.1.617l2.061.641-15,15a.348.348,0,1,0,.492.492l15-15,.641,2.061a.348.348,0,0,0,.278.241.368.368,0,0,0,.054,0,.348.348,0,0,0,.284-.147l1.474-2.084Zm-3.015-.585L16.7,13.715l-.6-1.938s0-.007-.006-.011a.344.344,0,0,0-.08-.132.336.336,0,0,0-.132-.08s-.006-.005-.01-.006l-1.938-.6,1.657-1.172a.348.348,0,0,0,.147-.289l-.026-2.029L17.336,8.67a.343.343,0,0,0,.32.051l1.921-.652-.652,1.922a.346.346,0,0,0,.051.32l1.214,1.626-2.029-.026a.422.422,0,0,0-.289.147" transform="translate(-0.005 -4.653)" fill="#007fff"/>
      <path id="Path_203" data-name="Path 203" d="M43.012,1.21a.344.344,0,0,0,.105.016.348.348,0,0,0,.105-.68A12.845,12.845,0,0,0,40.515,0,.348.348,0,0,0,40.453.7a12.107,12.107,0,0,1,2.559.514" transform="translate(-29.151 0)" fill="#007fff"/>
      <path id="Path_204" data-name="Path 204" d="M20.342,1.7a.356.356,0,0,0,.122-.022,12.045,12.045,0,0,1,2.346-.615A.348.348,0,1,0,22.7.375a12.782,12.782,0,0,0-2.482.65.348.348,0,0,0,.122.675" transform="translate(-14.521 -0.27)" fill="#007fff"/>
      <path id="Path_205" data-name="Path 205" d="M4.246,5.023A12.988,12.988,0,0,0,.074,8.494a.348.348,0,1,0,.548.43A12.279,12.279,0,0,1,4.569,5.641a.349.349,0,0,0-.323-.618" transform="translate(0.001 -3.62)" fill="#007fff"/>
      <path id="Path_206" data-name="Path 206" d="M13.473,10.591a.348.348,0,0,0,.487.068,9.943,9.943,0,0,1,8.822-1.574.348.348,0,0,0,.2-.667A10.635,10.635,0,0,0,13.542,10.1a.348.348,0,0,0-.068.487" transform="translate(-9.734 -5.789)" fill="#007fff"/>
      <path id="Path_207" data-name="Path 207" d="M3.6,23.178a10.622,10.622,0,0,0-.924,1.473.348.348,0,1,0,.619.32A9.921,9.921,0,0,1,4.153,23.6a.348.348,0,0,0-.558-.417" transform="translate(-1.912 -16.733)" fill="#007fff"/>
      <path id="Path_208" data-name="Path 208" d="M29.081,14.912a.348.348,0,1,0,.161.677,8.178,8.178,0,0,1,4.529.227A.348.348,0,0,0,34,15.158a8.861,8.861,0,0,0-4.919-.247" transform="translate(-20.927 -10.659)" fill="#007fff"/>
      <path id="Path_209" data-name="Path 209" d="M15.539,17.347a8.855,8.855,0,0,0-3.183,2.409.348.348,0,1,0,.535.446,8.156,8.156,0,0,1,2.931-2.218.348.348,0,0,0-.283-.637" transform="translate(-8.915 -12.578)" fill="#007fff"/>
    </g>
  </g>
</svg>
